#!OML:ASF I:\Random Stuff\random\construction\7_22_03\Session 2\subj1.ASF
:FULLY-SPECIFIED
:DEGREES
550
root -2.03558 17.8508 0.652316 -161.656 84.5135 -169.608
lowerback 0.995707 -0.976034 2.45582
upperback -0.565188 -1.11167 4.78452
thorax -1.09322 -0.511821 3.56636
lowerneck -12.3824 -13.2963 -11.6734
upperneck 30.5954 -18.7338 9.62687
head 14.7673 -7.99574 2.60007
rclavicle 2.5842e-015 -9.54166e-015
rhumerus -25.6814 -35.1469 -62.5473
rradius 37.671
rwrist -19.487
rhand -28.9071 15.9192
rfingers 7.12502
rthumb -2.26203 -14.0486
lclavicle 2.5842e-015 -9.54166e-015
lhumerus -34.1613 -6.29187 92.7203
lradius 36.9439
lwrist 37.936
lhand -17.8478 57.6645
lfingers 7.12502
lthumb 8.4172 87.4767
rfemur -0.712404 19.2083 19.4936
rtibia -4.77083e-015
rfoot -1.95399 -33.7609
rtoes -0.836893
lfemur -9.67595 -21.6189 -13.0478
ltibia 13.1581
lfoot -11.1635 18.2937
ltoes -27.067
551
root -2.03767 17.8505 0.6569 -161.693 84.486 -169.636
lowerback 1.06447 -0.964579 2.43903
upperback -0.591198 -1.09296 4.75304
thorax -1.15965 -0.502939 3.54438
lowerneck -12.2544 -13.2699 -11.6172
upperneck 30.5424 -18.6728 9.5138
head 14.6831 -7.9865 2.56748
rclavicle -2.38542e-015 1.43125e-014
rhumerus -26.1086 -34.9354 -62.5637
rradius 38.1616
rwrist -19.3531
rhand -29.3745 16.2592
rfingers 7.12502
rthumb -2.71336 -13.7033
lclavicle -2.38542e-015 1.43125e-014
lhumerus -34.1693 -6.41818 92.803
lradius 37.2576
lwrist 38.2802
lhand -17.8485 57.5482
lfingers 7.12502
lthumb 8.41655 87.3605
rfemur -0.700685 19.1828 19.5183
rtibia 0
rfoot -2.00238 -33.7569
rtoes -0.506523
lfemur -9.69377 -21.6276 -13.027
ltibia 13.1817
lfoot -11.1608 18.2598
ltoes -26.9444
552
root -2.03914 17.8501 0.661029 -161.694 84.4557 -169.621
lowerback 1.14572 -0.969535 2.41131
upperback -0.630763 -1.09388 4.74596
thorax -1.24553 -0.503318 3.55476
lowerneck -12.8016 -13.2331 -11.4488
upperneck 31.0759 -18.5299 9.09681
head 14.9503 -7.91319 2.37617
rclavicle -8.15017e-015 -2.22639e-014
rhumerus -26.6406 -34.602 -62.5357
rradius 38.7532
rwrist -19.2791
rhand -29.8207 16.7022
rfingers 7.12502
rthumb -3.14427 -13.2544
lclavicle -8.15017e-015 -2.22639e-014
lhumerus -34.1819 -6.46109 92.9337
lradius 37.5668
lwrist 38.8151
lhand -18.03 57.3201
lfingers 7.12502
lthumb 8.24133 87.1394
rfemur -0.675221 19.1556 19.5478
rtibia -1.59028e-015
rfoot -2.07226 -33.7402
rtoes -0.330619
lfemur -9.69428 -21.6254 -13.0155
ltibia 13.1931
lfoot -11.1034 18.2867
ltoes -27.4403
553
root -2.04008 17.8505 0.665357 -161.856 84.4279 -169.766
lowerback 1.23967 -0.981265 2.35383
upperback -0.687961 -1.1029 4.74227
thorax -1.35569 -0.50744 3.58616
lowerneck -12.7611 -13.1541 -11.4763
upperneck 31.1617 -18.4001 9.06213
head 14.962 -7.86304 2.39816
rclavicle 2.42517e-014 -4.77083e-014
rhumerus -27.2621 -34.0805 -62.4717
rradius 39.3795
rwrist -19.2236
rhand -30.208 17.197
rfingers 7.12502
rthumb -3.5183 -12.7537
lclavicle 2.42517e-014 -4.77083e-014
lhumerus -34.1603 -6.35115 92.9928
lradius 37.6514
lwrist 38.6515
lhand -17.4558 56.87
lfingers 7.12502
lthumb 8.79551 86.6667
rfemur -0.645941 19.126 19.5631
rtibia -6.36111e-015
rfoot -2.12157 -33.7245
rtoes -0.394455
lfemur -9.70472 -21.5101 -13.028
ltibia 13.202
lfoot -10.9933 18.2115
ltoes -28.0473
554
root -2.04061 17.852 0.670041 -162.203 84.3715 -170.082
lowerback 1.3615 -0.99013 2.30855
upperback -0.751402 -1.10762 4.70738
thorax -1.48894 -0.509996 3.57887
lowerneck -12.7102 -13.0919 -11.5115
upperneck 31.217 -18.3011 9.05347
head 14.9661 -7.82539 2.42537
rclavicle 1.07344e-014 -3.33958e-014
rhumerus -27.9681 -33.4135 -62.4428
rradius 40.0137
rwrist -19.1567
rhand -30.6402 17.691
rfingers 7.12502
rthumb -3.93566 -12.2524
lclavicle 1.07344e-014 -3.33958e-014
lhumerus -34.2017 -6.45295 93.0974
lradius 37.7864
lwrist 38.6325
lhand -17.5166 57.0996
lfingers 7.12502
lthumb 8.7368 86.8988
rfemur -0.586519 19.0645 19.5846
rtibia -4.77083e-015
rfoot -2.1894 -33.7274
rtoes -0.297714
lfemur -9.69488 -21.3909 -13.0498
ltibia 13.2037
lfoot -10.961 18.0643
ltoes -28.0351
555
root -2.04077 17.8504 0.67549 -163.125 84.2473 -170.933
lowerback 1.55917 -0.999569 2.26687
upperback -0.832575 -1.11069 4.62442
thorax -1.68412 -0.512578 3.52146
lowerneck -12.6589 -13.046 -11.4517
upperneck 31.1852 -18.2222 8.97508
head 14.9105 -7.7994 2.40507
rclavicle 0 6.36111e-015
rhumerus -28.8278 -32.508 -62.4686
rradius 40.6862
rwrist -19.0985
rhand -31.3077 18.1709
rfingers 7.12502
rthumb -4.58028 -11.7596
lclavicle 0 6.36111e-015
lhumerus -34.354 -6.78076 93.2192
lradius 38.0021
lwrist 38.7982
lhand -17.6504 57.3727
lfingers 7.12502
lthumb 8.60773 87.1772
rfemur -0.448496 18.9224 19.5898
rtibia 0
rfoot -2.39603 -33.7159
rtoes 0.233842
lfemur -9.64794 -21.2899 -13.1166
ltibia 13.2212
lfoot -10.9546 17.7886
ltoes -27.7606
